HIERARCHY
ROOT Hips
{
	OFFSET 0.00000 0.00000 0.00000
	CHANNELS 6 Xposition Yposition Zposition Zrotation Yrotation Xrotation 
	JOINT LHipJoint
	{
		OFFSET 0 0 0
		CHANNELS 3 Zrotation Yrotation Xrotation
		JOINT LeftUpLeg
		{
			OFFSET 1.26600 -1.82114 0.91038
			CHANNELS 3 Zrotation Yrotation Xrotation
			JOINT LeftLeg
			{
				OFFSET 2.50076 -6.87080 0.00000
				CHANNELS 3 Zrotation Yrotation Xrotation
				JOINT LeftFoot
				{
					OFFSET 2.57364 -7.07102 0.00000
					CHANNELS 3 Zrotation Yrotation Xrotation
					JOINT LeftToeBase
					{
						OFFSET 0.13572 -0.37290 1.97004
						CHANNELS 3 Zrotation Yrotation Xrotation
						End Site
						{
							OFFSET 0.00000 -0.00000 1.01383
						}
					}
				}
			}
		}
	}
	JOINT RHipJoint
	{
		OFFSET 0 0 0
		CHANNELS 3 Zrotation Yrotation Xrotation
		JOINT RightUpLeg
		{
			OFFSET -1.20803 -1.82114 0.91038
			CHANNELS 3 Zrotation Yrotation Xrotation
			JOINT RightLeg
			{
				OFFSET -2.54916 -7.00377 0.00000
				CHANNELS 3 Zrotation Yrotation Xrotation
				JOINT RightFoot
				{
					OFFSET -2.56374 -7.04382 0.00000
					CHANNELS 3 Zrotation Yrotation Xrotation
					JOINT RightToeBase
					{
						OFFSET -0.23520 -0.64621 2.09921
						CHANNELS 3 Zrotation Yrotation Xrotation
						End Site
						{
							OFFSET -0.00000 -0.00000 1.10065
						}
					}
				}
			}
		}
	}
	JOINT LowerBack
	{
		OFFSET 0 0 0
		CHANNELS 3 Zrotation Yrotation Xrotation
		JOINT Spine
		{
			OFFSET 0.05492 2.10797 -0.12074
			CHANNELS 3 Zrotation Yrotation Xrotation
			JOINT Spine1
			{
				OFFSET 0.04577 2.11592 -0.04483
				CHANNELS 3 Zrotation Yrotation Xrotation
				JOINT Neck
				{
					OFFSET 0 0 0
					CHANNELS 3 Zrotation Yrotation Xrotation
					JOINT Neck1
					{
						OFFSET -0.10759 1.80167 0.15770
						CHANNELS 3 Zrotation Yrotation Xrotation
						JOINT Head
						{
							OFFSET 0.09237 1.77509 -0.40848
							CHANNELS 3 Zrotation Yrotation Xrotation
							End Site
							{
								OFFSET 0.03805 1.84093 -0.15754
							}
						}
					}
				}
				JOINT LeftShoulder
				{
					OFFSET 0 0 0
					CHANNELS 3 Zrotation Yrotation Xrotation
					JOINT LeftArm
					{
						OFFSET 3.42372 1.09575 -0.28209
						CHANNELS 3 Zrotation Yrotation Xrotation
						JOINT LeftForeArm
						{
							OFFSET 4.95681 -0.00000 0.00000
							CHANNELS 3 Zrotation Yrotation Xrotation
							JOINT LeftHand
							{
								OFFSET 3.40915 -0.00000 0.00000
								CHANNELS 3 Zrotation Yrotation Xrotation
								JOINT LeftFingerBase
								{
									OFFSET 0 0 0
									CHANNELS 3 Zrotation Yrotation Xrotation
									JOINT LeftHandIndex1
									{
										OFFSET 0.61640 -0.00000 0.00000
										CHANNELS 3 Zrotation Yrotation Xrotation
										End Site
										{
											OFFSET 0.49696 -0.00000 0.00000
										}
									}
								}
								JOINT LThumb
								{
									OFFSET 0 0 0
									CHANNELS 3 Zrotation Yrotation Xrotation
									End Site
									{
										OFFSET 0.50455 -0.00000 0.50455
									}
								}
							}
						}
					}
				}
				JOINT RightShoulder
				{
					OFFSET 0 0 0
					CHANNELS 3 Zrotation Yrotation Xrotation
					JOINT RightArm
					{
						OFFSET -3.24731 1.15872 -0.32221
						CHANNELS 3 Zrotation Yrotation Xrotation
						JOINT RightForeArm
						{
							OFFSET -5.35200 -0.00000 0.00000
							CHANNELS 3 Zrotation Yrotation Xrotation
							JOINT RightHand
							{
								OFFSET -3.43721 -0.00000 -0.00000
								CHANNELS 3 Zrotation Yrotation Xrotation
								JOINT RightFingerBase
								{
									OFFSET 0 0 0
									CHANNELS 3 Zrotation Yrotation Xrotation
									JOINT RightHandIndex1
									{
										OFFSET -0.72009 -0.00000 0.00000
										CHANNELS 3 Zrotation Yrotation Xrotation
										End Site
										{
											OFFSET -0.58056 -0.00000 0.00000
										}
									}
								}
								JOINT RThumb
								{
									OFFSET 0 0 0
									CHANNELS 3 Zrotation Yrotation Xrotation
									End Site
									{
										OFFSET -0.58942 -0.00000 0.58942
									}
								}
							}
						}
					}
				}
			}
		}
	}
}
MOTION
Frames: 6
Frame Time: .0083333
-0.7010 23.6824 -0.2763 -285.3780 -260.4040 1153.6700 0.0000 0.0000 0.0000 -6.0371 -4.2913 -25.5193 12.9935 18.7798 69.1052 -0.8485 -16.1144 7.5433 0.0245 1.0097 2.7755 0.0000 0.0000 0.0000 32.0909 3.2243 -6.1908 -2.3809 -9.6180 27.7483 -0.7612 9.7906 -16.0014 -1.3224 -7.2829 20.5562 5.1789 0.6509 10.1340 4.1368 1.7092 3.1873 1.1771 0.9293 -2.3422 -9.3005 -3.2114 -12.2986 3.3095 -1.4107 38.7463 3.0396 -0.8981 15.9910 -0.0000 0.0000 0.0000 -89.4944 0.0040 24.6326 19.2233 -29.6952 -5.1410 -0.0000 0.0000 -4.4977 19.6542 19.4744 6.7902 -7.1250 0.0000 -0.0000 -8.6514 50.3614 -1.1507 -0.0000 0.0000 0.0000 85.2114 -0.6002 20.5508 -13.1828 21.5545 -2.5201 0.0000 -0.0000 -7.5944 -20.4436 10.6366 -3.9360 7.1250 -0.0000 -0.0000 4.6722 -18.6675 2.9407
-0.6075 23.6865 -0.2650 -285.4190 -260.6610 1153.3200 0.0000 0.0000 0.0000 -6.1623 -4.4163 -26.2584 13.3653 18.9101 70.2564 -0.7555 -15.1808 5.3077 0.0382 1.2618 3.4694 0.0000 0.0000 0.0000 31.9605 2.8761 -5.3968 -2.3365 -9.5344 27.4818 -0.8153 9.5992 -16.4618 -1.1282 -6.7465 18.9666 4.8402 0.6782 10.1223 4.2223 1.7107 3.3040 1.4563 0.9348 -2.2272 -9.8036 -3.1867 -12.2335 3.5231 -1.2785 38.9255 3.2545 -0.8843 16.0715 -0.0000 -0.0000 0.0000 -89.9400 0.2190 23.6979 19.0734 -29.5098 -5.0669 -0.0000 0.0000 -3.7827 18.9374 19.4714 6.5246 -7.1250 0.0000 -0.0000 -9.3472 50.2427 -1.2172 -0.0000 -0.0000 0.0000 84.7122 -0.4183 21.2156 -13.1008 21.4348 -2.4900 0.0000 -0.0000 -7.5781 -19.8498 10.7403 -3.8488 7.1250 -0.0000 -0.0000 5.0935 -18.6038 3.2151
-0.5316 23.6809 -0.2510 -285.4700 -260.8750 1153.0700 0.0000 0.0000 0.0000 -6.2114 -4.5539 -27.2922 13.7059 19.0224 71.3042 -0.6362 -14.0254 3.7881 0.0716 1.7258 4.7485 0.0000 0.0000 0.0000 31.9391 2.6715 -4.7926 -2.2816 -9.4294 27.1481 -0.8723 9.0031 -16.8811 -0.8396 -5.8449 16.3350 4.4734 0.6780 10.2497 4.3101 1.6876 3.3223 1.7535 0.9228 -2.2922 -10.0793 -3.1089 -12.1748 3.6516 -1.1086 39.0651 3.3961 -0.8341 16.1214 -0.0000 -0.0000 0.0000 -90.3434 0.5611 22.8427 18.9724 -29.3844 -5.0173 -0.0000 0.0000 -3.5023 18.6367 19.3083 6.3629 -7.1250 0.0000 -0.0000 -9.5856 50.0278 -1.1977 -0.0000 -0.0000 0.0000 84.4211 -0.1403 21.6021 -13.0060 21.2960 -2.4555 0.0000 -0.0000 -7.2609 -20.1943 10.4337 -3.8109 7.1250 -0.0000 -0.0000 4.8448 -18.9011 3.0250
-0.4598 23.6648 -0.2448 -284.9540 -260.9670 1153.4600 0.0000 0.0000 0.0000 -6.1362 -4.7360 -28.4527 14.0100 19.1171 72.2350 -0.5337 -12.9780 2.6150 0.0671 1.6708 4.5966 0.0000 0.0000 0.0000 32.1046 2.4924 -4.4002 -2.2390 -9.3470 26.8870 -0.9360 7.8979 -17.3300 -0.3517 -3.8101 10.5431 4.5236 0.7689 10.3850 4.2047 1.8180 3.2947 1.5974 0.9847 -2.3901 -9.8229 -3.1144 -12.0682 3.7231 -1.2149 39.1470 3.3688 -0.8272 16.1405 0.0000 0.0000 0.0000 -90.1944 0.8989 22.6960 18.9174 -29.3159 -4.9903 -0.0000 0.0000 -3.9145 18.8095 19.5195 6.4928 -7.1250 0.0000 -0.0000 -9.4870 50.2714 -1.2424 0.0000 0.0000 0.0000 84.6577 0.1650 21.0711 -12.8596 21.0812 -2.4026 0.0000 -0.0000 -6.4493 -20.3222 10.4692 -3.8499 7.1250 -0.0000 -0.0000 4.7548 -18.8539 2.9734
-0.3719 23.6573 -0.2397 -284.5780 -261.0210 1153.6400 0.0000 0.0000 0.0000 -6.1088 -4.7737 -29.3690 14.2289 19.1820 72.9023 -0.4526 -12.1744 1.3803 0.0231 0.9808 2.6960 0.0000 0.0000 0.0000 32.2392 2.2303 -3.8036 -2.1884 -9.2480 26.5743 -0.9818 7.0553 -17.6921 -0.1079 -2.1179 5.8317 5.0119 1.0293 10.2727 3.8585 2.1795 3.4328 0.9258 1.1688 -2.1504 -9.5444 -3.3698 -12.0811 4.0408 -1.7939 39.2204 3.3687 -0.9817 16.2311 -0.0000 0.0000 0.0000 -89.6040 0.8614 23.2088 18.6978 -29.0414 -4.8833 -0.0000 0.0000 -4.3434 19.2554 19.3858 6.6139 -7.1250 0.0000 -0.0000 -9.0111 50.2059 -1.1646 -0.0000 0.0000 0.0000 85.2118 0.5073 19.9540 -12.8151 21.0157 -2.3866 0.0000 -0.0000 -6.0738 -19.9326 10.8792 -3.9155 7.1250 -0.0000 -0.0000 5.0375 -18.4510 3.1966
-0.2821 23.6567 -0.2390 -284.0080 -261.0270 1154.0900 0.0000 0.0000 0.0000 -6.0607 -4.7954 -30.2776 14.3696 19.2223 73.3302 -0.3696 -11.3049 0.2633 0.0059 0.4963 1.3637 0.0000 0.0000 0.0000 32.2831 2.2371 -3.0247 -2.1257 -9.1232 26.1814 -0.9763 7.3542 -17.6556 -0.2072 -2.9309 8.0865 5.7241 1.3292 9.7993 3.5392 2.5810 3.7168 0.1733 1.3886 -1.5385 -9.6841 -3.6685 -12.0547 4.6105 -2.4340 39.1116 3.5360 -1.1905 16.2405 -0.0000 -0.0000 0.0000 -89.2148 0.6136 23.5069 18.4748 -28.7608 -4.7755 -0.0000 0.0000 -4.2749 19.5515 19.1664 6.6503 -7.1250 0.0000 -0.0000 -8.6548 50.0278 -1.0798 -0.0000 -0.0000 0.0000 85.7364 1.0514 18.4998 -12.8263 21.0322 -2.3906 0.0000 -0.0000 -5.6553 -19.7870 10.9843 -3.9215 7.1250 -0.0000 -0.0000 5.1420 -18.3517 3.2748
